<svg data-v-0dd9719b="" version="1.0" xmlns="http://www.w3.org/2000/svg" xmlns:xlink="http://www.w3.org/1999/xlink" width="100%" height="100%" viewBox="0 0 340.000000 250.000000" preserveAspectRatio="xMidYMid meet" color-interpolation-filters="sRGB" style="margin: auto;"> <rect data-v-0dd9719b="" x="0" y="0" width="100%" height="100%" fill="#fff" fill-opacity="1" class="background"></rect> <rect data-v-0dd9719b="" x="0" y="0" width="100%" height="100%" fill="url(#watermark)" fill-opacity="1" class="watermarklayer"></rect> <g data-v-0dd9719b="" fill="#fe6a59" class="icon-text-wrapper icon-svg-group iconsvg" transform="translate(54.724998474121094,98.43369483947754)"><g class="iconsvg-imagesvg" transform="translate(0,0)"><g><rect fill="#fe6a59" fill-opacity="0" stroke-width="2" x="0" y="0" width="60" height="53.132610139473094" class="image-rect"></rect> <svg x="0" y="0" width="60" height="53.132610139473094" filtersec="colorsb3636433665" class="image-svg-svg primary" style="overflow: visible;"><svg xmlns="http://www.w3.org/2000/svg" viewBox="-0.016089627519249916 0.0034749507904052734 82.98795318603516 73.48924255371094"><title>资源 1</title><g><g><path d="M41.35 14.71A78 78 0 0 1 78.4.1c3.4-.4 4.45.44 4.24 3.81-.26 4.21 1.15 9-.43 12.51-1.79 4-7.47 2.08-11.3 3.48-5.74 2.11-11.45 4.1-16.27 8l-.64-.02c-4.92-3.36-8.47-8.21-13-12a1 1 0 0 1 .35-1.17z" fill="#fe6a59"></path><path d="M41.35 14.71a5.07 5.07 0 0 1 0 .55c-3.84 4.7-7.65 9.43-13.2 12.29-7.78-4.82-16-8.46-25.26-9.23C.69 18.14 0 17.26 0 15.08A114.34 114.34 0 0 0 0 3.37C-.17.26 1-.22 3.85.08c13.86 1.45 26.2 6.66 37.5 14.63zM54.64 27.93c4.22 6.22 8.42 12.45 10.65 19.73 0 2.15-1.67 3.3-3 4.55-5.06 4.82-8.37 10.44-8.68 17.6 0 1.07.24 2.64-1.62 2.79-.59-11.53-3.32-22.33-10.71-31.6a1.3 1.3 0 0 1-.28-1.2c3.38-5.07 6.88-10 13.06-12a5.41 5.41 0 0 1 .58.13z" fill="#0078fb"></path><path d="M41.29 40.17v.87c-6.65 8.42-9.62 18.19-10.58 28.7-1.48.54-1.54-.75-1.64-1.48-1-7.19-4.74-12.77-10.09-17.45a3.77 3.77 0 0 1-1.7-3.17 61.22 61.22 0 0 1 11-19.5c6.63 1.5 10.08 6.48 13.01 12.03z" fill="#fe6a59"></path><path d="M41.29 40.17c-4.12-4.26-7.71-9.09-13-12a1.53 1.53 0 0 1-.12-.6c4.35-4.14 7.92-9.12 13.2-12.27a49.79 49.79 0 0 1 12.69 12.51 92.12 92.12 0 0 0-12.77 12.36z" fill="#002d59"></path><path d="M17.27 47.64A33.66 33.66 0 0 1 30.7 69.75c.23 2.31-.2 4-3.15 3.59-4.95-.66-10.08 1.23-14.9-1.09a40.65 40.65 0 0 1 1.68-20.11c.55-1.6.81-3.35 2.47-4.31a1 1 0 0 1 .47-.19zM52 72.6c.14-10.6 5.25-18.55 13.28-24.94a1.24 1.24 0 0 1 .47.15c4.25 5.39 4.53 11.84 4.78 18.26 0 .9-.17 1.83-.18 2.76-.33 4.94-3.7 4.9-7.32 4.5s-7.43.84-11.03-.73z" fill="#012d59"></path><path d="M16.8 47.83a87.08 87.08 0 0 0-4.15 24.43c-1-6-4.28-10-10.27-11.23C.26 60.59 0 59.58.06 57.85c.06-4 .16-8.09 0-12.12-.17-2.73 1.13-3.11 3.35-2.83a27.19 27.19 0 0 1 13.39 4.93z" fill="#0178fb"></path><path d="M70.35 68.83c-1.3-7.06-2.38-14.16-4.59-21A28.91 28.91 0 0 1 78.26 43c3-.5 4.85 0 4.36 3.67a26.11 26.11 0 0 0 0 5.59c.41 4.76.63 9-5.83 10.14-3.18.52-4.55 4-6.44 6.43z" fill="#fd6a59"></path></g></g></svg></svg> <!----></g></g> <g transform="translate(67,1.7400531768798828)"><g data-gra="path-name" fill-rule="" class="tp-name iconsvg-namesvg" transform="translate(0,0)"><g transform="scale(1)"><g><path d="M11.71-22.08L11.71 4.46 15.08 4.46 15.08 1.16 21.76 1.16 21.76 4.46 25.21 4.46 25.21-22.08 28.09-22.08 28.09-24.61 25.21-24.61 25.21-29.67 21.76-29.67 21.76-24.61 15.08-24.61 15.08-29.67 11.71-29.67 11.71-24.61 8.54-24.61 8.54-22.08 11.71-22.08ZM21.76-1.55L15.08-1.55 15.08-10.55 21.76-10.55 21.76-1.55ZM21.76-13.08L15.08-13.08 15.08-22.08 21.76-22.08 21.76-13.08ZM52.91-7.45L52.91 4.46 56 4.46 56-15.89 59.59-15.89 59.59-15.05 63.04-15.05 63.04-20.53 64.34-20.53 64.34-23.06 63.04-23.06 63.04-26.16Q63.35-26.89 63.95-27.98L63.95-27.98 60.5-29.32 59.45-27.7 56-27.7 56-29.95 52.91-29.95 52.91-27.7 46.09-27.7 46.09-25.17 52.91-25.17 52.91-23.06 44.58-23.06 44.58-20.53 52.91-20.53 52.91-18.42 46.09-18.42 46.09-15.89 52.91-15.89 52.91-11.18 50.45-11.18Q50.41-8.12 50.1-4.59 49.78-1.05 48.8 1.79L48.8 1.79 49.32 2.07Q51.82-2.07 52.91-7.45L52.91-7.45ZM44.82 3.97L45.04 4.25Q48.8 0.28 49.08-5.91L49.08-5.91 49.08-13.64 46.09-13.64 46.09-3.94Q45.98 0.56 44.82 3.97L44.82 3.97ZM57.9 1.09L57.9 1.09Q59.84 1.55 59.73-1.83L59.73-1.83Q59.45-6.43 56.5-11.18L56.5-11.18 56.11-11.18Q56.92-9.04 57.02-6.19L57.02-6.19Q57.09-4.08 57.02-1.05L57.02-1.05Q57.06 0.42 57.9 1.09L57.9 1.09ZM60.12-13.92L60.12 4.46 63.42 4.46 63.42-13.92 60.12-13.92ZM59.59-18.42L56-18.42 56-20.53 59.59-20.53 59.59-18.42ZM59.59-23.06L56-23.06 56-25.17 59.59-25.17 59.59-23.06ZM83.64-6.82L83.64 4.46 86.8 4.46 86.8 2.07 94.46 2.07 94.46 4.46 97.56 4.46 97.56-8.16Q97.8-8.89 98.44-10.05L98.44-10.05 95.13-11.18 94.22-9.42 86.91-9.42Q89.16-11.67 90.53-14.77L90.53-14.77 100.02-14.77 100.02-17.3 91.3-17.3Q91.69-18.53 91.76-19.83L91.76-19.83 87.93-19.83Q87.71-18.53 87.36-17.3L87.36-17.3 80.23-17.3 80.23-14.77 86.52-14.77Q84.38-9.25 80.05-5.2L80.05-5.2 80.23-4.78Q81.95-5.7 83.64-6.82L83.64-6.82ZM94.46-0.14L86.8-0.14 86.8-7.17 94.46-7.17 94.46-0.14ZM84.09-24.05L84.09-20.11 87.26-20.11 87.26-24.05 92.81-24.05 92.81-20.11 96.01-20.11 96.01-24.05 100.02-24.05 100.02-26.3 96.01-26.3 96.01-29.95 92.81-29.95 92.81-26.3 87.26-26.3 87.26-29.67 84.09-29.67 84.09-26.3 80.51-26.3 80.51-24.05 84.09-24.05ZM123.71 4.46L123.71 4.46Q127.62 4.57 128.21 1.44L128.21 1.44 128.21-18.77Q128.71-12.9 130.32-7.42 131.94-1.93 135.18 2.29L135.18 2.29Q134.23-1.37 136.51-3.3L136.51-3.3Q131.06-9.81 129.27-19.13L129.27-19.13Q133.28-19.58 136.09-24.05L136.09-24.05 132.47-25.17Q130.99-22.39 129.06-20.11L129.06-20.11Q128.6-22.18 128.21-24.19L128.21-24.19 128.21-29.67 124.84-29.67 124.84 0.04Q124.84 0.74 124.38 0.95L124.38 0.95Q122.52 1.23 120.62 1.02L120.62 1.02 120.62 1.44Q121.99 1.51 122.8 2.78L122.8 2.78Q123.19 3.38 123.22 3.9L123.22 3.9Q123.22 4.43 123.71 4.46L123.71 4.46ZM116.51 2.07L116.79 2.29Q120.97-2.71 122.2-8.81 123.43-14.91 123.57-20.46L123.57-20.46 124.21-22.08 121.01-23.2 120.38-21.8 116.12-21.8 116.12-19.55 120.38-19.55Q120.27-13.46 119.44-7.93 118.62-2.39 116.51 2.07L116.51 2.07ZM165.38-11.81L165.38 4.61 168.29 4.61 168.29-11.81 172.09-11.81 172.09-14.34 168.29-14.34 168.29-26.44 171.91-26.44 171.91-28.97 161.79-28.97 161.79-26.44 165.38-26.44 165.38-14.34 161.54-14.34 161.54-11.81 165.38-11.81ZM157.04-2.11L157.04 4.61 159.75 4.61 159.75-4.57Q161.19-6.05 162.46-7.95L162.46-7.95 162.18-8.16Q160.91-7.24 159.75-6.54L159.75-6.54 159.75-11.32 161.12-11.32 161.12-13.78 159.75-13.78 159.75-18.28 157.04-18.28 157.04-13.78 155.81-13.78Q156.55-17.33 157.18-21.94L157.18-21.94 161.26-21.94 161.26-24.19 157.46-24.19Q157.85-26.93 158.17-30.09L158.17-30.09 154.79-30.09 154.79-28.55Q154.79-26.61 154.65-24.19L154.65-24.19 152.79-24.19 152.79-21.94 154.48-21.94Q154.16-19.09 153.81-16.65 153.46-14.2 153.18-12.87L153.18-12.87 152.54-11.81 154.58-9.84 155.36-11.32 157.04-11.32 157.04-5.27Q154.83-4.39 152.54-3.94L152.54-3.94 153.67 0.18Q155.36-0.7 157.04-2.11L157.04-2.11Z" transform="translate(-8.539999961853027, 30.09000015258789)"></path></g> <!----> <!----> <!----> <!----> <!----> <!----> <!----></g></g> <g data-gra="path-slogan" fill-rule="" class="tp-slogan iconsvg-slogansvg" fill="#fe6a59" transform="translate(15.419441223144531,40.70000076293945)"><!----> <!----> <g transform="scale(1, 1)"><g transform="scale(1)"><path d="M7.31-3.61L4.69-3.61L4.69-4.59L8.44-4.59L8.44 0L7.69 0L7.41-1.08Q6.42 0.09 4.59 0.14L4.59 0.14Q2.86 0.14 1.92-0.75L1.92-0.75Q0.52-2.06 0.56-4.36L0.56-4.36Q0.89-8.63 4.64-8.81L4.64-8.81Q7.83-8.63 8.30-6L8.30-6L7.17-6Q6.70-7.78 4.59-7.83L4.59-7.83Q1.92-7.64 1.78-4.31L1.78-4.31Q1.78-0.75 4.64-0.75L4.64-0.75Q5.67-0.75 6.42-1.31L6.42-1.31Q7.36-2.06 7.31-3.61L7.31-3.61ZM15.89 0L15.05-2.48L11.58-2.48L10.69 0L9.52 0L12.75-8.58L14.06-8.58L17.16 0L15.89 0ZM13.31-7.31L11.95-3.52L14.63-3.52L13.36-7.31L13.31-7.31ZM19.59-8.58L23.91-1.64L23.91-8.58L25.03-8.58L25.03 0L23.72 0L19.36-6.94L19.31-6.94L19.31 0L18.19 0L18.19-8.58L19.59-8.58ZM33.09-6.09L33.09-6.09L32.02-6.09Q31.92-7.73 29.86-7.83L29.86-7.83Q27.94-7.78 27.94-6.33L27.94-6.33Q27.94-5.39 28.97-5.25L28.97-5.25L31.41-4.69Q33.33-4.22 33.33-2.34L33.33-2.34Q33.28 0.05 29.95 0.14L29.95 0.14Q28.13 0.14 27.38-0.61L27.38-0.61Q26.44-1.31 26.48-2.77L26.48-2.77L27.61-2.77Q27.66-0.80 29.95-0.75L29.95-0.75Q32.20-0.80 32.25-2.20L32.25-2.20Q32.44-3.38 30.38-3.75L30.38-3.75L28.59-4.13Q26.77-4.64 26.77-6.19L26.77-6.19Q26.91-8.72 29.77-8.81L29.77-8.81Q33-8.81 33.09-6.09ZM40.45-3.19L40.45-8.58L41.63-8.58L41.63-3.05Q41.48 0.05 38.11 0.14L38.11 0.14Q34.97 0.05 34.83-2.86L34.83-2.86L34.83-8.58L36-8.58L36-3.19Q36.05-0.84 38.16-0.80L38.16-0.80Q40.45-0.84 40.45-3.19L40.45-3.19ZM50.86-3.70L48.05-3.70L48.05 0L46.88 0L46.88-8.58L50.86-8.58Q53.72-8.58 53.72-6.28L53.72-6.28Q53.72-4.88 52.50-4.22L52.50-4.22Q53.53-3.94 53.53-2.58L53.53-2.58L53.63-1.03Q53.58-0.38 54.05-0.19L54.05-0.19L54.05 0L52.59 0Q52.45-0.61 52.41-2.16L52.41-2.16Q52.45-3.70 50.86-3.70L50.86-3.70ZM50.95-7.64L48.05-7.64L48.05-4.69L50.77-4.69Q52.50-4.69 52.50-6.19L52.50-6.19Q52.50-7.64 50.95-7.64L50.95-7.64ZM61.03-3.19L61.03-8.58L62.20-8.58L62.20-3.05Q62.06 0.05 58.69 0.14L58.69 0.14Q55.55 0.05 55.41-2.86L55.41-2.86L55.41-8.58L56.58-8.58L56.58-3.19Q56.63-0.84 58.73-0.80L58.73-0.80Q61.03-0.84 61.03-3.19L61.03-3.19ZM70.78-4.27L70.78-4.27Q70.59-7.64 67.78-7.83L67.78-7.83Q64.92-7.69 64.78-4.27L64.78-4.27Q64.92-0.94 67.78-0.80L67.78-0.80Q70.59-0.98 70.78-4.27ZM71.95-4.27L71.95-4.27Q71.67 0 67.78 0.14L67.78 0.14Q63.84 0 63.56-4.27L63.56-4.27Q63.80-8.72 67.78-8.81L67.78-8.81Q71.67-8.67 71.95-4.27ZM79.59-6.09L79.59-6.09L78.52-6.09Q78.42-7.73 76.36-7.83L76.36-7.83Q74.44-7.78 74.44-6.33L74.44-6.33Q74.44-5.39 75.47-5.25L75.47-5.25L77.91-4.69Q79.83-4.22 79.83-2.34L79.83-2.34Q79.78 0.05 76.45 0.14L76.45 0.14Q74.63 0.14 73.88-0.61L73.88-0.61Q72.94-1.31 72.98-2.77L72.98-2.77L74.11-2.77Q74.16-0.80 76.45-0.75L76.45-0.75Q78.70-0.80 78.75-2.20L78.75-2.20Q78.94-3.38 76.88-3.75L76.88-3.75L75.09-4.13Q73.27-4.64 73.27-6.19L73.27-6.19Q73.41-8.72 76.27-8.81L76.27-8.81Q79.50-8.81 79.59-6.09ZM82.45-5.06L86.95-5.06L86.95-8.58L88.13-8.58L88.13 0L86.95 0L86.95-3.98L82.45-3.98L82.45 0L81.28 0L81.28-8.58L82.45-8.58L82.45-5.06ZM95.58-3.19L95.58-8.58L96.75-8.58L96.75-3.05Q96.61 0.05 93.23 0.14L93.23 0.14Q90.09 0.05 89.95-2.86L89.95-2.86L89.95-8.58L91.13-8.58L91.13-3.19Q91.17-0.84 93.28-0.80L93.28-0.80Q95.58-0.84 95.58-3.19L95.58-3.19ZM98.72-8.58L99.89-8.58L99.89 0L98.72 0L98.72-8.58ZM108.61-8.58L105.70-4.41L108.75 0L107.30 0L104.95-3.52L102.61 0L101.20 0L104.30-4.41L101.39-8.58L102.84-8.58L105-5.30L107.20-8.58L108.61-8.58ZM115.50-3.19L115.50-8.58L116.67-8.58L116.67-3.05Q116.53 0.05 113.16 0.14L113.16 0.14Q110.02 0.05 109.88-2.86L109.88-2.86L109.88-8.58L111.05-8.58L111.05-3.19Q111.09-0.84 113.20-0.80L113.20-0.80Q115.50-0.84 115.50-3.19L115.50-3.19ZM124.13 0L123.28-2.48L119.81-2.48L118.92 0L117.75 0L120.98-8.58L122.30-8.58L125.39 0L124.13 0ZM121.55-7.31L120.19-3.52L122.86-3.52L121.59-7.31L121.55-7.31ZM127.83-8.58L132.14-1.64L132.14-8.58L133.27-8.58L133.27 0L131.95 0L127.59-6.94L127.55-6.94L127.55 0L126.42 0L126.42-8.58L127.83-8.58Z" transform="translate(-0.5609879032258065, 8.8125)"></path></g></g></g></g></g><defs v-gra="od"></defs></svg>